<?xml version="1.0" encoding="UTF-8" standalone="no"?>
<!-- Created with Inkscape (http://www.inkscape.org/) -->
<svg
   xmlns:svg="http://www.w3.org/2000/svg"
   xmlns="http://www.w3.org/2000/svg"
   version="1.0"
   width="662.01001"
   height="499.00406"
   id="svg2464">
  <defs
     id="defs2466" />
  <g
     transform="translate(-34.709278,-248.57444)"
     id="layer1">
    <path
       d="M 34.72428,248.57694 C 180.38428,248.57694 326.04428,248.56694 471.70428,248.58694 C 471.72428,255.91694 471.71428,263.23694 471.71428,270.56694 C 413.04428,270.60694 354.38428,270.54694 295.72428,270.58694 C 295.68428,364.57694 295.73428,458.57695 295.70428,552.56695 C 208.71428,552.57695 121.71428,552.58695 34.72428,552.56695 C 34.70428,451.23695 34.71428,349.90694 34.72428,248.57694 z"
       id="path2435"
       style="opacity:1;fill:#ffffff" />
    <path
       d="M 305.72428,280.58694 C 361.05428,280.56694 416.37428,280.56694 471.70428,280.58694 C 471.72428,371.24694 471.72428,461.90695 471.70428,552.56695 C 416.37428,552.57695 361.05428,552.58695 305.72428,552.56695 C 305.70428,461.90695 305.70428,371.24694 305.72428,280.58694 z"
       id="path2437"
       style="opacity:1;fill:#ffffff" />
    <path
       d="M 481.72428,280.58694 C 553.38428,280.57694 625.04428,280.56694 696.70428,280.58694 C 696.72428,436.24695 696.72428,591.90694 696.70428,747.56694 C 566.37428,747.57694 436.05428,747.58694 305.72428,747.56694 C 305.70428,685.90694 305.70428,624.24694 305.72428,562.58695 C 364.38428,562.54695 423.04428,562.60695 481.70428,562.56695 C 481.74428,468.57694 481.68428,374.57695 481.72428,280.58694 z"
       id="path2439"
       style="opacity:1;fill:#ffffff" />
    <path
       d="M 34.72428,565.58695 C 120.05428,565.57695 205.37428,565.56695 290.70428,565.58695 C 290.72428,626.24694 290.72428,686.90694 290.70428,747.56694 C 205.37428,747.57694 120.05428,747.58694 34.72428,747.56694 C 34.70428,686.90694 34.70428,626.24694 34.72428,565.58695 z"
       id="path2441"
       style="opacity:1;fill:#ffffff" />
  </g>
</svg>
